mtllib superdome.mtl
o superdome.obj
v 1.000000 1.000000 0.000000
v 0.866025 0.500000 0.000000
v 0.500000 0.133975 0.000000
v 0.866025 1.000000 0.500000
v 0.750000 0.500000 0.433013
v 0.433013 0.133975 0.250000
v 0.500000 1.000000 0.866025
v 0.433013 0.500000 0.750000
v 0.250000 0.133975 0.433013
v -0.000000 1.000000 1.000000
v -0.000000 0.500000 0.866025
v -0.000000 0.133975 0.500000
v -0.500000 1.000000 0.866025
v -0.433013 0.500000 0.750000
v -0.250000 0.133975 0.433013
v -0.866025 1.000000 0.500000
v -0.750000 0.500000 0.433013
v -0.433013 0.133975 0.250000
v -1.000000 1.000000 -0.000000
v -0.866025 0.500000 -0.000000
v -0.500000 0.133975 -0.000000
v -0.866025 1.000000 -0.500000
v -0.750000 0.500000 -0.433013
v -0.433013 0.133975 -0.250000
v -0.500000 1.000000 -0.866025
v -0.433013 0.500000 -0.750000
v -0.250000 0.133975 -0.433013
v 0.000000 1.000000 -1.000000
v 0.000000 0.500000 -0.866025
v 0.000000 0.133975 -0.500000
v 0.500000 1.000000 -0.866025
v 0.433013 0.500000 -0.750000
v 0.250000 0.133975 -0.433013
v 0.866025 1.000000 -0.500000
v 0.750000 0.500000 -0.433013
v 0.433013 0.133975 -0.250000
v 0.000000 0.000000 0.000000
v 0.670753 0.408494 0.387260
v 0.387260 0.408494 0.670753
v -0.000000 0.408494 0.774519
v -0.387260 0.408494 0.670753
v -0.670753 0.408494 0.387260
v -0.774519 0.408494 -0.000000
v -0.670753 0.408494 -0.387260
v -0.387260 0.408494 -0.670753
v 0.000000 0.408494 -0.774519
v 0.387260 0.408494 -0.670753
v 0.670753 0.408494 -0.387260
v 0.774519 0.408494 0.000000
v 0.933012 0.750000 0.000000
v 0.808012 0.750000 0.466506
v 0.466506 0.750000 0.808012
v -0.000000 0.750000 0.933012
v -0.466506 0.750000 0.808012
v -0.808012 0.750000 0.466506
v -0.933012 0.750000 -0.000000
v -0.808012 0.750000 -0.466506
v -0.466506 0.750000 -0.808012
v 0.000000 0.750000 -0.933012
v 0.466506 0.750000 -0.808012
v 0.808012 0.750000 -0.466506
v 0.837019 0.875000 0.483253
v 0.483253 0.875000 0.837019
v -0.000000 0.875000 0.966506
v -0.483253 0.875000 0.837019
v -0.837019 0.875000 0.483253
v -0.966506 0.875000 -0.000000
v -0.837019 0.875000 -0.483253
v -0.483253 0.875000 -0.837019
v 0.000000 0.875000 -0.966506
v 0.483253 0.875000 -0.837019
v 0.837019 0.875000 -0.483253
v 0.966506 0.875000 0.000000
v 0.899519 0.625000 0.000000
v 0.779006 0.625000 0.449760
v 0.449760 0.625000 0.779006
v -0.000000 0.625000 0.899519
v -0.449760 0.625000 0.779006
v -0.779006 0.625000 0.449760
v -0.899519 0.625000 -0.000000
v -0.779006 0.625000 -0.449760
v -0.449760 0.625000 -0.779006
v 0.000000 0.625000 -0.899519
v 0.449760 0.625000 -0.779006
v 0.779006 0.625000 -0.449760
v 0.545753 0.179728 0.000000
v 0.472636 0.179728 0.272877
v 0.272877 0.179728 0.472636
v -0.000000 0.179728 0.545753
v -0.272877 0.179728 0.472636
v -0.472636 0.179728 0.272877
v -0.545753 0.179728 -0.000000
v -0.472636 0.179728 -0.272877
v -0.272877 0.179728 -0.472636
v 0.000000 0.179728 -0.545753
v 0.272877 0.179728 -0.472636
v 0.472636 0.179728 -0.272877
vn -0.965926 0.258819 0.000000
vn -0.865033 0.501714 0.000000
vn -0.498232 0.867044 0.000000
vn -0.836516 0.258819 -0.482963
vn -0.749141 0.501715 -0.432516
vn -0.431481 0.867044 -0.249115
vn -0.482963 0.258818 -0.836516
vn -0.432516 0.501714 -0.749141
vn -0.249115 0.867044 -0.431481
vn -0.000000 0.258819 -0.965926
vn -0.000000 0.501714 -0.865033
vn -0.000000 0.867044 -0.498232
vn 0.482963 0.258819 -0.836516
vn 0.432516 0.501715 -0.749141
vn 0.249115 0.867044 -0.431481
vn 0.836516 0.258818 -0.482963
vn 0.749141 0.501714 -0.432516
vn 0.431481 0.867044 -0.249115
vn 0.965926 0.258819 -0.000000
vn 0.865033 0.501714 -0.000000
vn 0.498232 0.867044 -0.000000
vn 0.836516 0.258819 0.482963
vn 0.749141 0.501715 0.432516
vn 0.431481 0.867044 0.249115
vn 0.482963 0.258818 0.836516
vn 0.432516 0.501714 0.749141
vn 0.249115 0.867044 0.431481
vn 0.000000 0.258819 0.965926
vn 0.000000 0.501714 0.865033
vn 0.000000 0.867044 0.498232
vn -0.482963 0.258819 0.836516
vn -0.432516 0.501715 0.749141
vn -0.249115 0.867044 0.431481
vn -0.836516 0.258818 0.482963
vn -0.749141 0.501714 0.432516
vn -0.431481 0.867044 0.249115
vn -0.000000 1.000000 -0.000000
vn -0.612372 0.707107 -0.353553
vn -0.353553 0.707107 -0.612372
vn 0.000000 0.707107 -0.707107
vn 0.353553 0.707107 -0.612372
vn 0.612372 0.707107 -0.353553
vn 0.707107 0.707107 0.000000
vn 0.612372 0.707107 0.353553
vn 0.353553 0.707107 0.612372
vn -0.000000 0.707107 0.707107
vn -0.353553 0.707107 0.612372
vn -0.612372 0.707107 0.353553
vn -0.707107 0.707107 -0.000000
vn -0.965926 0.258819 0.000000
vn -0.836516 0.258819 -0.482963
vn -0.482963 0.258818 -0.836517
vn -0.000000 0.258819 -0.965926
vn 0.482963 0.258819 -0.836516
vn 0.836517 0.258818 -0.482963
vn 0.965926 0.258819 -0.000000
vn 0.836516 0.258819 0.482963
vn 0.482963 0.258818 0.836517
vn 0.000000 0.258819 0.965926
vn -0.482963 0.258819 0.836516
vn -0.836517 0.258818 0.482963
vn -0.836516 0.258819 -0.482963
vn -0.482963 0.258818 -0.836516
vn -0.000000 0.258819 -0.965926
vn 0.482963 0.258819 -0.836516
vn 0.836516 0.258818 -0.482963
vn 0.965926 0.258819 -0.000000
vn 0.836516 0.258819 0.482963
vn 0.482963 0.258818 0.836516
vn 0.000000 0.258819 0.965926
vn -0.482963 0.258819 0.836516
vn -0.836516 0.258818 0.482963
vn -0.965926 0.258819 0.000000
vn -0.965926 0.258819 0.000000
vn -0.836516 0.258819 -0.482963
vn -0.482963 0.258818 -0.836517
vn -0.000000 0.258819 -0.965926
vn 0.482963 0.258819 -0.836516
vn 0.836517 0.258818 -0.482963
vn 0.965926 0.258819 -0.000000
vn 0.836516 0.258819 0.482963
vn 0.482963 0.258818 0.836517
vn 0.000000 0.258819 0.965926
vn -0.482963 0.258819 0.836516
vn -0.836517 0.258818 0.482963
vn -0.707107 0.707107 0.000000
vn -0.612372 0.707107 -0.353553
vn -0.353553 0.707107 -0.612372
vn -0.000000 0.707107 -0.707107
vn 0.353553 0.707107 -0.612372
vn 0.612372 0.707107 -0.353553
vn 0.707107 0.707107 -0.000000
vn 0.612372 0.707107 0.353553
vn 0.353553 0.707107 0.612372
vn 0.000000 0.707107 0.707107
vn -0.353553 0.707107 0.612372
vn -0.612372 0.707107 0.353553
vt 0.928725 0.252475
vt 0.995049 0.500000
vt 0.960065 0.500000
vt 0.898428 0.269967
vt 0.738279 0.362429
vt 0.775141 0.500000
vt 0.710027 0.500000
vt 0.681889 0.394986
vt 0.500000 0.500000
vt 0.587933 0.449232
vt 0.601536 0.500000
vt 0.747525 0.071275
vt 0.730033 0.101572
vt 0.637571 0.261721
vt 0.605014 0.318111
vt 0.550768 0.412067
vt 0.500000 0.004950
vt 0.500000 0.039934
vt 0.500000 0.224859
vt 0.500000 0.289973
vt 0.500000 0.398464
vt 0.252475 0.071275
vt 0.269967 0.101572
vt 0.362429 0.261721
vt 0.394986 0.318111
vt 0.449232 0.412067
vt 0.071275 0.252475
vt 0.101572 0.269967
vt 0.261721 0.362429
vt 0.318111 0.394986
vt 0.412067 0.449232
vt 0.004950 0.500000
vt 0.039934 0.500000
vt 0.224859 0.500000
vt 0.289973 0.500000
vt 0.398464 0.500000
vt 0.071275 0.747525
vt 0.101572 0.730033
vt 0.261721 0.637571
vt 0.318111 0.605014
vt 0.412067 0.550768
vt 0.252475 0.928725
vt 0.269967 0.898428
vt 0.362429 0.738279
vt 0.394986 0.681889
vt 0.449232 0.587933
vt 0.500000 0.995049
vt 0.500000 0.960065
vt 0.500000 0.775141
vt 0.500000 0.710027
vt 0.500000 0.601536
vt 0.747525 0.928725
vt 0.730033 0.898428
vt 0.637571 0.738279
vt 0.605014 0.681889
vt 0.550768 0.587933
vt 0.928725 0.747525
vt 0.898428 0.730033
vt 0.738279 0.637571
vt 0.681889 0.605014
vt 0.587933 0.550768
vt 0.654060 0.500000
vt 0.633420 0.422970
vt 0.577030 0.366580
vt 0.500000 0.345940
vt 0.422970 0.366580
vt 0.366580 0.422970
vt 0.345940 0.500000
vt 0.366580 0.577030
vt 0.422970 0.633420
vt 0.500000 0.654060
vt 0.577030 0.633420
vt 0.633420 0.577030
vt 0.916114 0.500000
vt 0.848650 0.500000
vt 0.801940 0.325674
vt 0.860366 0.291942
vt 0.674326 0.198060
vt 0.708058 0.139634
vt 0.500000 0.151349
vt 0.500000 0.083885
vt 0.325674 0.198060
vt 0.291942 0.139634
vt 0.198060 0.325674
vt 0.139634 0.291942
vt 0.151349 0.500000
vt 0.083885 0.500000
vt 0.198060 0.674326
vt 0.139634 0.708058
vt 0.325674 0.801940
vt 0.291942 0.860366
vt 0.500000 0.848650
vt 0.500000 0.916114
vt 0.674326 0.801940
vt 0.708058 0.860366
vt 0.801940 0.674326
vt 0.860366 0.708058
g Sphere
usemtl Default
f 4/1/4 1/2/1 73/3/73 62/4/62 
f 5/5/5 2/6/2 49/7/49 38/8/38 
f 37/9/37 6/10/6 3/11/3 
f 7/12/7 4/1/4 62/4/62 63/13/63 
f 8/14/8 5/5/5 38/8/38 39/15/39 
f 37/9/37 9/16/9 6/10/6 
f 10/17/10 7/12/7 63/13/63 64/18/64 
f 11/19/11 8/14/8 39/15/39 40/20/40 
f 37/9/37 12/21/12 9/16/9 
f 13/22/13 10/17/10 64/18/64 65/23/65 
f 14/24/14 11/19/11 40/20/40 41/25/41 
f 37/9/37 15/26/15 12/21/12 
f 16/27/16 13/22/13 65/23/65 66/28/66 
f 17/29/17 14/24/14 41/25/41 42/30/42 
f 37/9/37 18/31/18 15/26/15 
f 19/32/19 16/27/16 66/28/66 67/33/67 
f 20/34/20 17/29/17 42/30/42 43/35/43 
f 37/9/37 21/36/21 18/31/18 
f 22/37/22 19/32/19 67/33/67 68/38/68 
f 23/39/23 20/34/20 43/35/43 44/40/44 
f 37/9/37 24/41/24 21/36/21 
f 25/42/25 22/37/22 68/38/68 69/43/69 
f 26/44/26 23/39/23 44/40/44 45/45/45 
f 37/9/37 27/46/27 24/41/24 
f 28/47/28 25/42/25 69/43/69 70/48/70 
f 29/49/29 26/44/26 45/45/45 46/50/46 
f 37/9/37 30/51/30 27/46/27 
f 31/52/31 28/47/28 70/48/70 71/53/71 
f 32/54/32 29/49/29 46/50/46 47/55/47 
f 37/9/37 33/56/33 30/51/30 
f 34/57/34 31/52/31 71/53/71 72/58/72 
f 35/59/35 32/54/32 47/55/47 48/60/48 
f 37/9/37 36/61/36 33/56/33 
f 1/2/1 34/57/34 72/58/72 73/3/73 
f 2/6/2 35/59/35 48/60/48 49/7/49 
f 37/9/37 3/11/3 36/61/36 
f 38/8/38 49/7/49 86/62/86 87/63/87 
f 39/15/39 38/8/38 87/63/87 88/64/88 
f 40/20/40 39/15/39 88/64/88 89/65/89 
f 41/25/41 40/20/40 89/65/89 90/66/90 
f 42/30/42 41/25/41 90/66/90 91/67/91 
f 43/35/43 42/30/42 91/67/91 92/68/92 
f 44/40/44 43/35/43 92/68/92 93/69/93 
f 45/45/45 44/40/44 93/69/93 94/70/94 
f 46/50/46 45/45/45 94/70/94 95/71/95 
f 47/55/47 46/50/46 95/71/95 96/72/96 
f 48/60/48 47/55/47 96/72/96 97/73/97 
f 49/7/49 48/60/48 97/73/97 86/62/86 
f 50/74/50 74/75/74 75/76/75 51/77/51 
f 51/77/51 75/76/75 76/78/76 52/79/52 
f 52/79/52 76/78/76 77/80/77 53/81/53 
f 53/81/53 77/80/77 78/82/78 54/83/54 
f 54/83/54 78/82/78 79/84/79 55/85/55 
f 55/85/55 79/84/79 80/86/80 56/87/56 
f 56/87/56 80/86/80 81/88/81 57/89/57 
f 57/89/57 81/88/81 82/90/82 58/91/58 
f 58/91/58 82/90/82 83/92/83 59/93/59 
f 59/93/59 83/92/83 84/94/84 60/95/60 
f 60/95/60 84/94/84 85/96/85 61/97/61 
f 61/97/61 85/96/85 74/75/74 50/74/50 
f 73/3/73 50/74/50 51/77/51 62/4/62 
f 62/4/62 51/77/51 52/79/52 63/13/63 
f 63/13/63 52/79/52 53/81/53 64/18/64 
f 64/18/64 53/81/53 54/83/54 65/23/65 
f 65/23/65 54/83/54 55/85/55 66/28/66 
f 66/28/66 55/85/55 56/87/56 67/33/67 
f 67/33/67 56/87/56 57/89/57 68/38/68 
f 68/38/68 57/89/57 58/91/58 69/43/69 
f 69/43/69 58/91/58 59/93/59 70/48/70 
f 70/48/70 59/93/59 60/95/60 71/53/71 
f 71/53/71 60/95/60 61/97/61 72/58/72 
f 72/58/72 61/97/61 50/74/50 73/3/73 
f 74/75/74 2/6/2 5/5/5 75/76/75 
f 75/76/75 5/5/5 8/14/8 76/78/76 
f 76/78/76 8/14/8 11/19/11 77/80/77 
f 77/80/77 11/19/11 14/24/14 78/82/78 
f 78/82/78 14/24/14 17/29/17 79/84/79 
f 79/84/79 17/29/17 20/34/20 80/86/80 
f 80/86/80 20/34/20 23/39/23 81/88/81 
f 81/88/81 23/39/23 26/44/26 82/90/82 
f 82/90/82 26/44/26 29/49/29 83/92/83 
f 83/92/83 29/49/29 32/54/32 84/94/84 
f 84/94/84 32/54/32 35/59/35 85/96/85 
f 85/96/85 35/59/35 2/6/2 74/75/74 
f 86/62/86 3/11/3 6/10/6 87/63/87 
f 87/63/87 6/10/6 9/16/9 88/64/88 
f 88/64/88 9/16/9 12/21/12 89/65/89 
f 89/65/89 12/21/12 15/26/15 90/66/90 
f 90/66/90 15/26/15 18/31/18 91/67/91 
f 91/67/91 18/31/18 21/36/21 92/68/92 
f 92/68/92 21/36/21 24/41/24 93/69/93 
f 93/69/93 24/41/24 27/46/27 94/70/94 
f 94/70/94 27/46/27 30/51/30 95/71/95 
f 95/71/95 30/51/30 33/56/33 96/72/96 
f 96/72/96 33/56/33 36/61/36 97/73/97 
f 97/73/97 36/61/36 3/11/3 86/62/86 
